<mxfile host="app.diagrams.net" modified="2023-11-28T13:41:27.922Z" agent="Mozilla/5.0 (Windows NT 10.0; Win64; x64) AppleWebKit/537.36 (KHTML, like Gecko) Chrome/119.0.0.0 Safari/537.36 Edg/119.0.0.0" etag="zEWOlydBT8eF9Umolbl3" version="22.1.4" type="github">
  <diagram name="第 1 页" id="U1HfONmQmhmGP7cX_vBL">
    <mxGraphModel dx="1002" dy="577" grid="1" gridSize="10" guides="1" tooltips="1" connect="1" arrows="1" fold="1" page="1" pageScale="1" pageWidth="827" pageHeight="1169" math="0" shadow="0">
      <root>
        <mxCell id="0" />
        <mxCell id="1" parent="0" />
        <mxCell id="b3vAf401Sl3uRj7u1eSA-16" style="edgeStyle=orthogonalEdgeStyle;rounded=0;orthogonalLoop=1;jettySize=auto;html=1;entryX=0;entryY=0.5;entryDx=0;entryDy=0;strokeWidth=4;endSize=2;endArrow=block;endFill=1;" parent="1" edge="1">
          <mxGeometry relative="1" as="geometry">
            <mxPoint x="430" y="339" as="sourcePoint" />
            <mxPoint x="475" y="339" as="targetPoint" />
          </mxGeometry>
        </mxCell>
        <mxCell id="b3vAf401Sl3uRj7u1eSA-2" value="" style="rounded=1;whiteSpace=wrap;html=1;" parent="1" vertex="1">
          <mxGeometry x="160" y="230" width="270" height="170" as="geometry" />
        </mxCell>
        <mxCell id="b3vAf401Sl3uRj7u1eSA-14" style="edgeStyle=orthogonalEdgeStyle;rounded=0;orthogonalLoop=1;jettySize=auto;html=1;exitX=0;exitY=0.75;exitDx=0;exitDy=0;entryX=1;entryY=0.75;entryDx=0;entryDy=0;strokeWidth=4;endSize=2;endArrow=block;endFill=1;" parent="1" edge="1">
          <mxGeometry relative="1" as="geometry">
            <mxPoint x="475" y="374.5" as="sourcePoint" />
            <mxPoint x="430" y="374.5" as="targetPoint" />
          </mxGeometry>
        </mxCell>
        <mxCell id="b3vAf401Sl3uRj7u1eSA-3" value="" style="rounded=1;whiteSpace=wrap;html=1;" parent="1" vertex="1">
          <mxGeometry x="475" y="230" width="190" height="170" as="geometry" />
        </mxCell>
        <mxCell id="b3vAf401Sl3uRj7u1eSA-8" style="edgeStyle=orthogonalEdgeStyle;rounded=0;orthogonalLoop=1;jettySize=auto;html=1;entryX=0;entryY=0.5;entryDx=0;entryDy=0;strokeWidth=4;endArrow=block;endFill=1;endSize=4;" parent="1" source="b3vAf401Sl3uRj7u1eSA-4" target="b3vAf401Sl3uRj7u1eSA-5" edge="1">
          <mxGeometry relative="1" as="geometry">
            <Array as="points">
              <mxPoint x="190" y="275" />
              <mxPoint x="190" y="365" />
            </Array>
          </mxGeometry>
        </mxCell>
        <mxCell id="b3vAf401Sl3uRj7u1eSA-4" value="&lt;font style=&quot;font-size: 18px;&quot;&gt;调度器&lt;/font&gt;" style="rounded=0;whiteSpace=wrap;html=1;fillColor=#fff2cc;strokeColor=#d6b656;" parent="1" vertex="1">
          <mxGeometry x="210" y="260" width="180" height="30" as="geometry" />
        </mxCell>
        <mxCell id="b3vAf401Sl3uRj7u1eSA-6" style="edgeStyle=orthogonalEdgeStyle;rounded=0;orthogonalLoop=1;jettySize=auto;html=1;entryX=0.5;entryY=1;entryDx=0;entryDy=0;strokeWidth=4;endSize=3;endArrow=block;endFill=1;" parent="1" source="b3vAf401Sl3uRj7u1eSA-5" target="b3vAf401Sl3uRj7u1eSA-4" edge="1">
          <mxGeometry relative="1" as="geometry" />
        </mxCell>
        <mxCell id="b3vAf401Sl3uRj7u1eSA-5" value="&lt;span style=&quot;font-size: 18px;&quot;&gt;监督器&lt;/span&gt;" style="rounded=0;whiteSpace=wrap;html=1;fillColor=#dae8fc;strokeColor=#6c8ebf;" parent="1" vertex="1">
          <mxGeometry x="210" y="350" width="180" height="30" as="geometry" />
        </mxCell>
        <mxCell id="b3vAf401Sl3uRj7u1eSA-7" value="&lt;font style=&quot;font-size: 16px;&quot;&gt;当前配置&lt;/font&gt;" style="text;html=1;strokeColor=none;fillColor=none;align=center;verticalAlign=middle;whiteSpace=wrap;rounded=0;" parent="1" vertex="1">
          <mxGeometry x="310" y="310" width="70" height="30" as="geometry" />
        </mxCell>
        <mxCell id="b3vAf401Sl3uRj7u1eSA-9" value="&lt;font style=&quot;font-size: 16px;&quot;&gt;反馈&lt;/font&gt;" style="text;html=1;strokeColor=none;fillColor=none;align=center;verticalAlign=middle;whiteSpace=wrap;rounded=0;" parent="1" vertex="1">
          <mxGeometry x="180" y="310" width="70" height="30" as="geometry" />
        </mxCell>
        <mxCell id="b3vAf401Sl3uRj7u1eSA-10" value="&lt;font style=&quot;font-size: 20px;&quot;&gt;主机&lt;/font&gt;" style="text;html=1;strokeColor=none;fillColor=none;align=center;verticalAlign=middle;whiteSpace=wrap;rounded=0;" parent="1" vertex="1">
          <mxGeometry x="270" y="230" width="60" height="30" as="geometry" />
        </mxCell>
        <mxCell id="b3vAf401Sl3uRj7u1eSA-11" value="&lt;span style=&quot;font-size: 20px;&quot;&gt;计算单元&lt;/span&gt;" style="text;html=1;strokeColor=none;fillColor=none;align=center;verticalAlign=middle;whiteSpace=wrap;rounded=0;" parent="1" vertex="1">
          <mxGeometry x="525" y="230" width="90" height="30" as="geometry" />
        </mxCell>
        <mxCell id="b3vAf401Sl3uRj7u1eSA-18" style="edgeStyle=orthogonalEdgeStyle;rounded=0;orthogonalLoop=1;jettySize=auto;html=1;entryX=1;entryY=0.25;entryDx=0;entryDy=0;exitX=0;exitY=0.25;exitDx=0;exitDy=0;strokeWidth=4;endSize=2;endArrow=block;endFill=1;" parent="1" source="b3vAf401Sl3uRj7u1eSA-3" target="b3vAf401Sl3uRj7u1eSA-2" edge="1">
          <mxGeometry relative="1" as="geometry">
            <mxPoint x="470" y="273" as="sourcePoint" />
          </mxGeometry>
        </mxCell>
        <mxCell id="b3vAf401Sl3uRj7u1eSA-12" value="&lt;font style=&quot;font-size: 18px;&quot;&gt;预测器&lt;/font&gt;" style="rounded=0;whiteSpace=wrap;html=1;fillColor=#f8cecc;strokeColor=#b85450;" parent="1" vertex="1">
          <mxGeometry x="505" y="260" width="130" height="30" as="geometry" />
        </mxCell>
        <mxCell id="b3vAf401Sl3uRj7u1eSA-13" value="&lt;font style=&quot;font-size: 18px;&quot;&gt;生成文本&lt;/font&gt;" style="rounded=0;whiteSpace=wrap;html=1;" parent="1" vertex="1">
          <mxGeometry x="495" y="330" width="150" height="50" as="geometry" />
        </mxCell>
        <mxCell id="b3vAf401Sl3uRj7u1eSA-15" value="&lt;font style=&quot;font-size: 16px;&quot;&gt;抢占&lt;/font&gt;" style="text;html=1;strokeColor=none;fillColor=none;align=center;verticalAlign=middle;whiteSpace=wrap;rounded=0;" parent="1" vertex="1">
          <mxGeometry x="420" y="373" width="60" height="30" as="geometry" />
        </mxCell>
        <mxCell id="b3vAf401Sl3uRj7u1eSA-17" value="&lt;font style=&quot;font-size: 16px;&quot;&gt;分配&lt;/font&gt;" style="text;html=1;strokeColor=none;fillColor=none;align=center;verticalAlign=middle;whiteSpace=wrap;rounded=0;" parent="1" vertex="1">
          <mxGeometry x="420" y="310" width="60" height="30" as="geometry" />
        </mxCell>
        <mxCell id="b3vAf401Sl3uRj7u1eSA-20" value="&lt;font style=&quot;font-size: 16px;&quot;&gt;预测&lt;br&gt;长度&lt;/font&gt;" style="text;html=1;strokeColor=none;fillColor=none;align=center;verticalAlign=middle;whiteSpace=wrap;rounded=0;" parent="1" vertex="1">
          <mxGeometry x="420" y="230" width="60" height="30" as="geometry" />
        </mxCell>
      </root>
    </mxGraphModel>
  </diagram>
</mxfile>
